<svg width="36" height="36" viewBox="0 0 36 36" fill="none" xmlns="http://www.w3.org/2000/svg">
<g>
<path fill-rule="evenodd" clip-rule="evenodd" d="M28.1861 29C28.0241 29.0009 27.8655 28.9529 27.7304 28.8623C27.5953 28.7716 27.4898 28.6423 27.4272 28.4907C27.3646 28.3392 27.3478 28.1722 27.3789 28.0109C27.41 27.8497 27.4875 27.7014 27.6018 27.5849C27.716 27.4684 27.8618 27.3889 28.0206 27.3566C28.1795 27.3242 28.3442 27.3404 28.4939 27.403C28.6437 27.4657 28.7717 27.5721 28.8618 27.7086C28.9519 27.8452 29 28.0058 29 28.1701C29 28.3895 28.9144 28.5999 28.7619 28.7554C28.6094 28.9109 28.4024 28.9988 28.1861 29ZM27.7555 20.0594C27.592 20.0567 27.433 20.005 27.2985 19.9107C27.164 19.8164 27.06 19.6838 26.9998 19.5296C26.9396 19.3754 26.9259 19.2065 26.9603 19.0444C26.9947 18.8823 27.0757 18.7341 27.1931 18.6187C27.3106 18.5033 27.4591 18.4257 27.6199 18.3959C27.7808 18.3661 27.9467 18.3853 28.0968 18.4512C28.2469 18.517 28.3743 18.6265 28.463 18.7659C28.5518 18.9052 28.5978 19.068 28.5952 19.2339C28.5918 19.454 28.5032 19.6639 28.3485 19.8184C28.1939 19.9728 27.9855 20.0594 27.7685 20.0594H27.7555ZM27.7555 17.5479C27.5918 17.5479 27.4318 17.4986 27.2958 17.4063C27.1597 17.314 27.0537 17.1827 26.9913 17.0292C26.9288 16.8758 26.9127 16.7069 26.945 16.5441C26.9772 16.3813 27.0564 16.2319 27.1725 16.1148C27.2885 15.9977 27.4362 15.9182 27.5969 15.8863C27.7576 15.8545 27.9239 15.8717 28.0749 15.9358C28.2259 16 28.3547 16.1082 28.4451 16.2466C28.5354 16.3851 28.5832 16.5477 28.5823 16.7137C28.5823 16.9335 28.4969 17.1443 28.3445 17.3005C28.1921 17.4567 27.9851 17.5456 27.7685 17.5479H27.7555ZM26.0977 16.0673V17.596H24.4484V15.7397C24.4486 15.5185 24.5353 15.3064 24.6896 15.1501L26.6359 13.1934C26.7604 13.0657 26.9205 12.98 27.0947 12.948C27.2688 12.916 27.4484 12.9391 27.6091 13.0143C27.728 13.0715 27.8316 13.1569 27.911 13.2633C27.9904 13.3697 28.0434 13.494 28.0654 13.6256C28.0873 13.7572 28.0777 13.8922 28.0372 14.0192C27.9968 14.1462 27.9268 14.2615 27.833 14.3552L26.0977 16.0673ZM27.5962 23.0556C27.4355 23.1308 27.2559 23.1539 27.0817 23.1219C26.9076 23.0898 26.7474 23.0042 26.623 22.8765L24.6767 20.9198C24.5224 20.7634 24.4356 20.5513 24.4355 20.3301V18.4389H26.0977V19.9676L27.8201 21.7147C27.9107 21.8076 27.9784 21.9209 28.0177 22.0453C28.0569 22.1697 28.0667 22.3018 28.0461 22.4308C28.0256 22.5598 27.9753 22.682 27.8993 22.7875C27.8234 22.8931 27.724 22.9789 27.6091 23.0381L27.5962 23.0556ZM23.6174 14.9361V20.9809L28.3541 25.7854C28.4324 25.8628 28.4949 25.9551 28.5381 26.0571C28.5812 26.159 28.6041 26.2686 28.6055 26.3795C28.6069 26.4904 28.5868 26.6005 28.5462 26.7036C28.5057 26.8066 28.4455 26.9005 28.3692 26.9799C28.2928 27.0594 28.2018 27.1228 28.1013 27.1665C28.0008 27.2103 27.8928 27.2336 27.7834 27.235C27.6741 27.2364 27.5655 27.216 27.4639 27.1748C27.3623 27.1337 27.2698 27.0727 27.1914 26.9952L22.1963 21.9244C22.1185 21.8469 22.0566 21.7545 22.0145 21.6525C21.9723 21.5505 21.9507 21.441 21.9509 21.3303V14.5867C21.9507 14.476 21.9723 14.3665 22.0145 14.2645C22.0566 14.1625 22.1185 14.0701 22.1963 13.9927L25.2451 10.896C25.3211 10.8162 25.4119 10.7525 25.5123 10.7084C25.6126 10.6642 25.7206 10.6406 25.8299 10.6387C25.9393 10.6369 26.0479 10.657 26.1496 10.6977C26.2514 10.7385 26.3442 10.7992 26.4228 10.8763C26.5014 10.9535 26.5642 11.0456 26.6078 11.1473C26.6513 11.2491 26.6746 11.3586 26.6764 11.4695C26.6782 11.5804 26.6584 11.6906 26.6182 11.7938C26.5781 11.897 26.5182 11.9911 26.4422 12.0709L23.6174 14.9361ZM21.7011 13.4117C21.6238 13.4903 21.5318 13.5524 21.4305 13.5944C21.3292 13.6364 21.2206 13.6574 21.1112 13.6563H14.4798C14.3703 13.6579 14.2616 13.6371 14.1602 13.5951C14.0588 13.553 13.9669 13.4907 13.8898 13.4117L10.8411 10.3107C10.6835 10.1543 10.5936 9.94084 10.5912 9.71723C10.5888 9.49361 10.674 9.27818 10.8282 9.11832C10.9824 8.95847 11.1928 8.86728 11.4133 8.86482C11.6338 8.86237 11.8462 8.94884 12.0038 9.10522L14.8243 11.9704H20.7796L23.5786 9.12269C23.7037 8.99319 23.8654 8.90638 24.0413 8.8743C24.2173 8.84221 24.3987 8.86644 24.5604 8.94362C24.6781 9.00396 24.7801 9.09172 24.8579 9.19971C24.9358 9.3077 24.9873 9.43286 25.0083 9.56494C25.0293 9.69702 25.0192 9.83226 24.9788 9.95961C24.9383 10.0869 24.8687 10.2028 24.7757 10.2976L21.7011 13.4117ZM20.7796 10.8785C20.7025 10.9576 20.6106 11.0204 20.5093 11.0631C20.408 11.1059 20.2994 11.1277 20.1897 11.1275H18.3467V9.44153H19.8624L21.5633 7.7163C21.6876 7.587 21.8483 7.49994 22.0234 7.46709C22.1984 7.43424 22.3792 7.45722 22.5408 7.53286C22.6585 7.5932 22.7605 7.68096 22.8384 7.78895C22.9162 7.89694 22.9678 8.0221 22.9888 8.15418C23.0098 8.28626 22.9996 8.4215 22.9592 8.54885C22.9188 8.67619 22.8492 8.79201 22.7561 8.88684L20.7796 10.8785ZM19.0141 8.69466C18.8506 8.69466 18.6907 8.64548 18.5548 8.55333C18.4188 8.46118 18.3129 8.33021 18.2503 8.17698C18.1877 8.02375 18.1713 7.85513 18.2032 7.69246C18.2351 7.52979 18.3139 7.38037 18.4295 7.26309C18.5451 7.14581 18.6924 7.06594 18.8528 7.03358C19.0132 7.00123 19.1794 7.01783 19.3305 7.08131C19.4816 7.14478 19.6107 7.25226 19.7016 7.39017C19.7924 7.52807 19.8409 7.69021 19.8409 7.85607C19.8365 8.07244 19.7498 8.27871 19.5989 8.43175C19.448 8.58478 19.2447 8.67273 19.0313 8.67719L19.0141 8.69466ZM15.6553 11.1275C15.5456 11.1277 15.437 11.1059 15.3357 11.0631C15.2344 11.0204 15.1425 10.9576 15.0654 10.8785L13.119 8.89994C12.9614 8.74356 12.8715 8.53008 12.8691 8.30647C12.8667 8.08285 12.9519 7.86742 13.1061 7.70756C13.2603 7.54771 13.4708 7.45652 13.6912 7.45406C13.9117 7.45161 14.1241 7.53808 14.2817 7.69446L16.0041 9.44153H17.5199V11.1275H15.6553ZM16.5596 8.67719C16.3961 8.67719 16.2363 8.62801 16.1003 8.53586C15.9643 8.44371 15.8584 8.31274 15.7958 8.15951C15.7332 8.00628 15.7168 7.83766 15.7487 7.67499C15.7806 7.51232 15.8594 7.3629 15.975 7.24562C16.0906 7.12834 16.238 7.04847 16.3983 7.01611C16.5587 6.98376 16.7249 7.00036 16.876 7.06383C17.0271 7.12731 17.1562 7.23479 17.2471 7.3727C17.3379 7.5106 17.3864 7.67274 17.3864 7.83859C17.3864 7.94872 17.365 8.05777 17.3235 8.15951C17.2819 8.26125 17.221 8.3537 17.1442 8.43157C17.0675 8.50944 16.9763 8.57121 16.876 8.61335C16.7757 8.6555 16.6682 8.67719 16.5596 8.67719ZM13.6315 14.5998V21.3391C13.6321 21.45 13.6111 21.56 13.5697 21.6626C13.5283 21.7653 13.4674 21.8587 13.3903 21.9375L10.3416 25.0341C10.2165 25.1636 10.0548 25.2504 9.87886 25.2825C9.70294 25.3146 9.52153 25.2904 9.3598 25.2132C9.24193 25.1522 9.14003 25.0637 9.0625 24.955C8.98496 24.8462 8.934 24.7203 8.91382 24.5877C8.89363 24.455 8.9048 24.3194 8.94641 24.192C8.98801 24.0646 9.05885 23.9491 9.1531 23.8549L11.9693 20.9809V14.9492L9.1531 12.0927C8.99493 11.9363 8.90448 11.7226 8.90165 11.4986C8.90025 11.3877 8.92041 11.2776 8.96097 11.1745C9.00152 11.0715 9.06169 10.9776 9.13803 10.8982C9.21437 10.8187 9.30539 10.7553 9.40589 10.7115C9.5064 10.6678 9.61441 10.6445 9.72377 10.6431C9.94464 10.6402 10.1576 10.7265 10.3158 10.8829L13.3903 13.9927C13.4688 14.0721 13.5306 14.1669 13.572 14.2712C13.6135 14.3755 13.6337 14.4873 13.6315 14.5998ZM10.8756 15.1326C10.9585 15.2097 11.0248 15.3035 11.07 15.4081C11.1152 15.5126 11.1385 15.6256 11.1382 15.7397V17.6135H9.47606V16.0848L7.77515 14.3595C7.69652 14.2829 7.63363 14.1912 7.59008 14.0898C7.54654 13.9884 7.5232 13.8792 7.52142 13.7686C7.51964 13.658 7.53945 13.5482 7.5797 13.4454C7.61996 13.3426 7.67987 13.2489 7.75598 13.1697C7.83209 13.0904 7.9229 13.0273 8.02318 12.9838C8.12346 12.9404 8.23123 12.9174 8.34028 12.9164C8.44933 12.9153 8.5575 12.9362 8.65857 12.9777C8.75964 13.0193 8.85161 13.0807 8.92919 13.1584L10.8756 15.1326ZM7.80529 15.8751C7.96966 15.8708 8.13157 15.9162 8.27034 16.0057C8.4091 16.0952 8.51842 16.2246 8.58431 16.3774C8.6502 16.5302 8.66967 16.6994 8.64024 16.8635C8.61082 17.0276 8.53382 17.1791 8.4191 17.2985C8.30438 17.418 8.15714 17.5001 7.9962 17.5342C7.83526 17.5684 7.66793 17.5531 7.5156 17.4903C7.36327 17.4276 7.23285 17.3201 7.14102 17.1818C7.04918 17.0435 7.0001 16.8805 7.00004 16.7137C7.00004 16.4921 7.08656 16.2794 7.24068 16.1223C7.3948 15.9651 7.60399 15.8763 7.82251 15.8751H7.80529ZM7.80529 18.3865C7.96929 18.3822 8.13085 18.4275 8.26942 18.5166C8.40798 18.6057 8.51728 18.7345 8.58341 18.8868C8.64954 19.0391 8.6695 19.2079 8.64076 19.3717C8.61203 19.5356 8.53589 19.687 8.42203 19.8068C8.30818 19.9266 8.16175 20.0094 8.0014 20.0445C7.84104 20.0797 7.674 20.0656 7.52154 20.0042C7.36907 19.9428 7.23807 19.8367 7.1452 19.6995C7.05234 19.5624 7.00181 19.4003 7.00004 19.2339C6.99891 19.1234 7.01931 19.0137 7.06008 18.9113C7.10085 18.8088 7.16119 18.7155 7.23762 18.6368C7.31405 18.558 7.40507 18.4954 7.50544 18.4524C7.60582 18.4095 7.71357 18.3871 7.82251 18.3865H7.80529ZM9.45884 19.9676V18.4389H11.1382V20.3127C11.1361 20.4239 11.1117 20.5335 11.0666 20.6348C11.0214 20.7362 10.9564 20.8272 10.8756 20.9023L8.94641 22.859C8.82199 22.9867 8.66182 23.0724 8.48769 23.1044C8.31356 23.1364 8.13393 23.1133 7.97323 23.0381C7.85464 22.9805 7.75148 22.8948 7.67249 22.7882C7.59351 22.6815 7.54102 22.5572 7.51947 22.4256C7.49792 22.2941 7.50795 22.1592 7.54871 22.0324C7.58947 21.9056 7.65976 21.7906 7.75362 21.6972L9.45884 19.9676ZM13.8898 22.3436C13.9665 22.2651 14.0576 22.2026 14.1581 22.1599C14.2587 22.1171 14.3665 22.095 14.4755 22.0947H21.1069C21.2166 22.0944 21.3252 22.1163 21.4265 22.159C21.5278 22.2018 21.6197 22.2645 21.6968 22.3436L26.6532 27.3796C26.8108 27.536 26.9007 27.7494 26.9031 27.9731C26.9055 28.1967 26.8203 28.4121 26.6661 28.572C26.5119 28.7318 26.3014 28.823 26.081 28.8255C25.8605 28.8279 25.6481 28.7414 25.4905 28.5851L20.7538 23.7806H14.8156L12.0124 26.624C11.8881 26.7533 11.7274 26.8403 11.5524 26.8732C11.3773 26.906 11.1965 26.8831 11.0349 26.8074C10.9172 26.7471 10.8152 26.6593 10.7373 26.5513C10.6595 26.4433 10.6079 26.3182 10.5869 26.1861C10.5659 26.054 10.5761 25.9188 10.6165 25.7914C10.6569 25.6641 10.7265 25.5483 10.8196 25.4534L13.8898 22.3436ZM15.0697 24.8725C15.2283 24.7175 15.4394 24.63 15.6596 24.6279H17.5199V26.3139H15.9998L14.3204 28.0391C14.2444 28.1185 14.1536 28.182 14.0534 28.2259C13.9532 28.2697 13.8454 28.2932 13.7362 28.2948C13.6271 28.2964 13.5187 28.2762 13.4172 28.2353C13.3157 28.1945 13.2232 28.1337 13.1449 28.0566C13.0666 27.9794 13.004 27.8874 12.9607 27.7857C12.9175 27.684 12.8944 27.5747 12.8928 27.464C12.8912 27.3533 12.9111 27.2433 12.9514 27.1404C12.9917 27.0375 13.0516 26.9436 13.1277 26.8642L15.0697 24.8725ZM16.5639 27.2573C16.7276 27.2564 16.8879 27.3049 17.0244 27.3965C17.161 27.4881 17.2676 27.6188 17.3308 27.7719C17.3941 27.9251 17.4111 28.0938 17.3796 28.2568C17.3482 28.4197 17.2698 28.5696 17.1544 28.6873C17.0389 28.805 16.8916 28.8853 16.7311 28.918C16.5706 28.9507 16.4042 28.9344 16.2528 28.871C16.1015 28.8077 15.9721 28.7002 15.8811 28.5622C15.7901 28.4242 15.7415 28.2619 15.7415 28.0959C15.7415 27.875 15.8274 27.663 15.9806 27.506C16.1338 27.349 16.3418 27.2596 16.5596 27.2573H16.5639ZM20.2112 24.6367C20.4315 24.6387 20.6426 24.7262 20.8012 24.8813L22.7475 26.8598C22.9057 27.0162 22.9961 27.2299 22.999 27.4539C23.0018 27.678 22.9168 27.894 22.7626 28.0544C22.6084 28.2148 22.3977 28.3066 22.1768 28.3094C21.956 28.3123 21.743 28.2261 21.5849 28.0697L19.8624 26.3226H18.3467V24.6279H20.2069L20.2112 24.6367ZM19.0356 27.2573C19.1986 27.2599 19.3572 27.3112 19.4914 27.4049C19.6257 27.4986 19.7296 27.6305 19.7902 27.7839C19.8508 27.9374 19.8654 28.1056 19.832 28.2674C19.7987 28.4292 19.7189 28.5774 19.6028 28.6933C19.4867 28.8093 19.3393 28.8879 19.1793 28.9192C19.0193 28.9505 18.8537 28.9331 18.7034 28.8693C18.5531 28.8055 18.4247 28.698 18.3344 28.5604C18.2442 28.4228 18.196 28.2612 18.196 28.0959C18.1959 27.985 18.2176 27.8752 18.2597 27.7729C18.3018 27.6706 18.3635 27.5778 18.4411 27.4998C18.5188 27.4218 18.611 27.3602 18.7123 27.3186C18.8136 27.277 18.922 27.2561 19.0313 27.2573H19.0356Z" fill="black"/>
</g>
</svg>