<?xml version="1.0" encoding="utf-8"?>
<!-- Generator: Adobe Illustrator 25.0.1, SVG Export Plug-In . SVG Version: 6.00 Build 0)  -->
<svg version="1.1" id="Layer_1" xmlns="http://www.w3.org/2000/svg" xmlns:xlink="http://www.w3.org/1999/xlink" x="0px" y="0px"
	 viewBox="0 0 360 360" style="enable-background:new 0 0 360 360;" xml:space="preserve">
<style type="text/css">
	.st0{fill:#B7B5B1;}
</style>
<g id="Shape_1_3_">
	<g>
		<path class="st0" d="M348.3,164.1c-38.8-225-332.6-181.4-337.8,0c17,8.8,27.6,14.1,27.6,14.1s-9,5.4-27.7,17.4
			c33.9,220.6,322.6,188.5,337.9-0.3c-18.4-11.3-28.4-17.2-28.4-17.2S328.5,174.1,348.3,164.1z M203.8,242.7l-27.6-47.4l-28,47.4
			l-21.2-1.5l39.9-67.2l-35.9-58l21.7-1.9l25.6,43l25.6-41.1l20.2,0.5l-33.5,57l36.9,68.6L203.8,242.7z"/>
	</g>
</g>
<g id="Shape_1_2_">
	<g>
		<path d="M334.6,155.4C282-44.5,40.7,9.6,24.2,155.4c33.5,18.8,41.1,23.3,41.1,23.3s-12.9,8.3-41.2,26.2
			c35.9,192.2,296.2,155.3,310.5-0.2c-26.3-16.5-41.8-26.1-41.8-26.1S328.2,158.8,334.6,155.4z M203.8,243l-27.6-47.4l-28,47.4
			l-21.2-1.5l39.8-67.2l-35.9-58l21.6-1.9l25.6,43l25.6-41.1l20.2,0.5l-33.5,57l36.9,68.6L203.8,243z"/>
	</g>
</g>
</svg>
