<svg width="36" height="36" viewBox="0 0 36 36" fill="none" xmlns="http://www.w3.org/2000/svg">
<g>
<path fill-rule="evenodd" clip-rule="evenodd" d="M28.6171 8L20.7819 17.7234L29 28H24.4156C23.4691 28.0017 22.6459 27.5655 21.9461 26.6914L17.6168 21.2649L13.2875 26.6914C12.587 27.5638 11.7639 28 10.818 28H7.7946C7.32203 28 7.05716 27.7906 7 27.3719C7 27.1688 7.09924 26.942 7.29771 26.6914L10.2258 23.0221L14.4517 17.7234L7.70939 9.32534C7.51091 9.08351 7.41168 8.85564 7.41168 8.64173C7.41168 8.21391 7.67175 8 8.1919 8H11.2462C12.192 8 13.02 8.44178 13.7301 9.32534L17.6179 14.1797L21.5057 9.32534C22.2055 8.4512 23.0334 8.00942 23.9896 8H28.6171ZM26.2951 22.8112L22.2331 17.7406L26.2951 12.6696V22.8112Z" fill="black"/>
</g>
</svg>